<?xml version="1.0"?>
<svg xmlns="http://www.w3.org/2000/svg" width="256" height="256" viewBox="0 0 256 256">
  <g transform="translate(35.84,60.42) scale(2.6264)">
  <circle fill="#4D74D4" cx="63.17" cy="44.45" r="7.02"></circle>
  <path fill="#4D74D4" d="M33.17,18.87c0,.12-.01.24-.03.36-.05.37-.19.7-.4.99l-.1.14-1.05,1.48-18.75,26.53-.09.13c-1.27,1.79-3.36,2.96-5.73,2.96-3.87,0-7.02-3.14-7.02-7.01V0h8.84l.4,3.62.12,1.06,2.34,21.05s0,.09.01.14v.13c.14,1.16,1.13,2.07,2.33,2.07.53,0,1.02-.17,1.41-.47l12.29-9.33,1.3-.98.39-.29.02-.02c.39-.28.87-.45,1.39-.45,1.29,0,2.33,1.05,2.33,2.34Z"></path>
  <path fill="#4D74D4" d="M49.13,38.29v13.17h-9.03l-.29-4.1-.02-.34c-.01-.08-.01-.15-.01-.23l-1.64-23.43-.64-9.1c-.15-2.44-2.18-4.37-4.67-4.37-1.08,0-2.07.36-2.87.98l-.11.09-3.92,2.95-6.66,5.03-.07.06c-.39.3-.88.48-1.41.48-1.29,0-2.34-1.05-2.34-2.34,0-.65.27-1.25.71-1.67l.15-.13L29.14,3.42l.33-.31C31.56,1.18,34.35,0,37.42,0,43.88,0,49.11,5.23,49.11,11.69l.02,26.6Z"></path>
  </g>
</svg>